<svg width="32" height="32" viewBox="0 0 32 32" fill="none" xmlns="http://www.w3.org/2000/svg">
<path d="M19.9238 5C21.62 5.45522 23.1666 6.34857 24.4084 7.59039C25.6502 8.83221 26.5436 10.3788 26.9988 12.075" stroke="black" stroke-width="2" stroke-linecap="round" stroke-linejoin="round"/>
<path d="M18.8887 8.8623C19.9088 9.13323 20.8392 9.66903 21.5856 10.4154C22.332 11.1617 22.8678 12.0921 23.1387 13.1123" stroke="black" stroke-width="2" stroke-linecap="round" stroke-linejoin="round"/>
<path d="M11.5625 15.6001C12.5915 17.7251 14.3098 19.439 16.4375 20.4626C16.5944 20.5369 16.768 20.5691 16.9412 20.5559C17.1143 20.5428 17.2811 20.4847 17.425 20.3876L20.55 18.3001C20.6881 18.2064 20.8476 18.1493 21.0137 18.134C21.1799 18.1187 21.3472 18.1457 21.5 18.2126L27.35 20.7251C27.5499 20.8083 27.717 20.9549 27.8254 21.1424C27.9338 21.3299 27.9776 21.5478 27.95 21.7626C27.7646 23.2098 27.0582 24.5398 25.9631 25.5038C24.8679 26.4678 23.459 26.9998 22 27.0001C17.4913 27.0001 13.1673 25.209 9.97919 22.0209C6.79107 18.8328 5 14.5088 5 10C5.00033 8.54104 5.53227 7.13214 6.49628 6.03698C7.4603 4.94183 8.79033 4.23546 10.2375 4.05004C10.4523 4.02245 10.6702 4.06623 10.8577 4.17465C11.0452 4.28307 11.1918 4.4501 11.275 4.65004L13.7875 10.5126C13.8528 10.663 13.8802 10.8272 13.8671 10.9907C13.854 11.1542 13.8009 11.3119 13.7125 11.4501L11.625 14.6251C11.5321 14.7687 11.4775 14.9337 11.4666 15.1044C11.4556 15.2751 11.4887 15.4458 11.5625 15.6001Z" stroke="black" stroke-width="2" stroke-linecap="round" stroke-linejoin="round"/>
</svg>
